<?xml version="1.0" standalone="no"?>
<!DOCTYPE svg PUBLIC "-//W3C//DTD SVG 20010904//EN"
 "http://www.w3.org/TR/2001/REC-SVG-20010904/DTD/svg10.dtd">
<svg version="1.0" xmlns="http://www.w3.org/2000/svg"
 width="587.000000pt" height="587.000000pt" viewBox="0 0 587.000000 587.000000"
 preserveAspectRatio="xMidYMid meet">
<metadata>
Created by potrace 1.11, written by Peter Selinger 2001-2013
</metadata>
<g transform="translate(0.000000,587.000000) scale(0.100000,-0.100000)"
fill="#000000" stroke="none">
<path d="M2583 5845 c-663 -84 -1256 -374 -1723 -844 -162 -162 -239 -257
-368 -451 -352 -527 -521 -1155 -482 -1784 59 -933 533 -1755 1312 -2272 654
-434 1469 -585 2243 -416 994 218 1821 962 2143 1928 355 1064 78 2222 -719
3011 -230 228 -472 400 -764 544 -302 148 -522 218 -870 275 -140 23 -617 28
-772 9z m693 -454 c269 -40 489 -109 739 -231 606 -297 1063 -823 1274 -1465
72 -220 108 -428 118 -676 l6 -166 -52 -69 c-391 -517 -947 -854 -1581 -958
-113 -19 -321 -36 -434 -36 l-81 0 -55 -66 c-178 -214 -490 -422 -785 -524
-109 -37 -304 -84 -313 -75 -2 2 14 13 35 24 132 67 335 254 467 432 160 214
255 407 426 869 114 309 203 501 286 617 160 222 344 376 563 468 166 70 377
105 529 88 60 -7 82 -6 82 2 0 31 -67 140 -115 188 -94 94 -217 145 -373 156
l-96 6 -33 65 c-99 197 -341 311 -592 280 -105 -14 -173 -38 -300 -109 -167
-93 -322 -168 -402 -195 -274 -92 -525 -43 -751 146 l-48 40 0 -59 c0 -80 22
-162 72 -262 74 -152 209 -262 373 -306 143 -37 301 -28 427 24 37 16 68 27
68 25 0 -1 -21 -52 -46 -111 -203 -479 -588 -953 -1005 -1239 l-66 -46 -64 33
c-265 133 -539 390 -699 653 -134 223 -242 537 -266 777 -6 60 -3 73 31 160
125 316 321 606 581 859 206 200 382 325 636 450 296 146 579 222 948 254 93
8 370 -5 496 -23z"/>
</g>
</svg>
