<svg width="240" height="240" viewBox="0 0 240 240" fill="none" xmlns="http://www.w3.org/2000/svg">
<path d="M165.591 124.896C165.757 111.992 172.687 99.7817 183.681 93.0229C176.745 83.1178 165.129 76.8377 153.043 76.4596C140.152 75.1065 127.655 84.1731 121.086 84.1731C114.391 84.1731 104.277 76.5939 93.3861 76.818C79.1904 77.2766 65.9565 85.3475 59.05 97.7583C44.2038 123.462 55.2777 161.238 69.4991 182.015C76.6144 192.189 84.9302 203.554 95.8111 203.151C106.459 202.709 110.436 196.361 123.288 196.361C136.022 196.361 139.753 203.151 150.854 202.895C162.28 202.709 169.478 192.676 176.344 182.405C181.456 175.156 185.39 167.144 188 158.666C174.573 152.987 165.606 139.474 165.591 124.896Z" fill="#141312" fill-opacity="0.6"/>
<path d="M144.621 62.7955C150.851 55.3171 153.92 45.7048 153.177 36C143.659 36.9996 134.868 41.5484 128.554 48.7399C122.38 55.7664 119.167 65.2095 119.774 74.5434C129.295 74.6414 138.655 70.216 144.621 62.7955Z" fill="#141312" fill-opacity="0.6"/>
</svg>
