<svg width="173" height="172" viewBox="0 0 173 172" fill="none" xmlns="http://www.w3.org/2000/svg">
<g clip-path="url(#clip0_143_59)">
<path d="M147.757 61.3785C147.757 27.4405 120.213 -0.0640493 86.2598 5.07778e-05C52.3912 0.0641508 24.8039 27.875 25.0011 61.7433C25.1147 81.2685 34.3455 98.6333 48.6514 109.796C52.383 112.708 54.5687 117.173 54.5687 121.907C54.5687 132.109 62.8391 140.379 73.0407 140.379H99.7156C109.918 140.379 118.188 132.109 118.188 121.907V121.906C118.188 117.177 120.367 112.712 124.096 109.803C138.497 98.571 147.757 81.0561 147.757 61.3785Z" fill="url(#paint0_linear_143_59)"/>
<path d="M35.1758 95.2289C38.8556 100.784 43.4111 105.707 48.6513 109.796C52.3829 112.708 54.5687 117.174 54.5687 121.907C54.5687 132.109 62.8391 140.379 73.0406 140.379H99.7156C109.918 140.379 118.188 132.109 118.188 121.907V121.906C118.188 117.177 120.367 112.712 124.096 109.804C129.34 105.713 133.898 100.787 137.58 95.2293H35.1758V95.2289Z" fill="url(#paint1_linear_143_59)"/>
<path d="M114.144 111.258C141.225 95.9235 150.746 61.5394 135.411 34.4592C120.077 7.379 85.6927 -2.14256 58.6125 13.1922C31.5323 28.5269 22.0107 62.911 37.3455 89.9912C52.6802 117.071 87.0643 126.593 114.144 111.258Z" fill="url(#paint2_linear_143_59)"/>
<path d="M86.1001 172C68.5322 172 54.2904 157.758 54.2904 140.19V131.994H117.91V140.19C117.91 157.758 103.668 172 86.1001 172Z" fill="url(#paint3_linear_143_59)"/>
<path d="M52 129.006V136.064C52 137.678 53.6726 139.054 55.96 139.332C64.8379 140.412 75.1278 141.03 86.1001 141.03C97.0728 141.03 107.362 140.412 116.24 139.332C118.528 139.054 120.2 137.678 120.2 136.064V129.006C120.2 126.963 117.571 125.404 114.671 125.733C106.159 126.699 96.4336 127.248 86.0997 127.248C75.7658 127.248 66.0409 126.699 57.5283 125.733C54.6292 125.404 52 126.963 52 129.006Z" fill="url(#paint4_linear_143_59)"/>
<path d="M52 129.006V136.064C52 137.678 53.6726 139.054 55.96 139.332C64.8379 140.412 75.1278 141.03 86.1001 141.03C97.0728 141.03 107.362 140.412 116.24 139.332C118.528 139.054 120.2 137.678 120.2 136.064V129.006C120.2 126.963 117.571 125.404 114.671 125.733C106.159 126.699 96.4336 127.248 86.0997 127.248C75.7658 127.248 66.0409 126.699 57.5283 125.733C54.6292 125.404 52 126.963 52 129.006Z" fill="url(#paint5_linear_143_59)"/>
<path d="M52 146.167V153.225C52 154.84 53.6726 156.215 55.96 156.494C64.8379 157.573 75.1278 158.191 86.1001 158.191C97.0728 158.191 107.362 157.573 116.24 156.494C118.528 156.216 120.2 154.84 120.2 153.225V146.167C120.2 144.124 117.571 142.565 114.671 142.894C106.159 143.86 96.4336 144.409 86.0997 144.409C75.7658 144.409 66.0409 143.86 57.5283 142.894C54.6292 142.565 52 144.124 52 146.167Z" fill="url(#paint6_linear_143_59)"/>
</g>
<defs>
<linearGradient id="paint0_linear_143_59" x1="59.7004" y1="41.2943" x2="119.071" y2="100.665" gradientUnits="userSpaceOnUse">
<stop stop-color="#A8C5CA"/>
<stop offset="1" stop-color="#DEE8EA"/>
</linearGradient>
<linearGradient id="paint1_linear_143_59" x1="83" y1="130" x2="112.291" y2="114.339" gradientUnits="userSpaceOnUse">
<stop stop-color="#A8C5CA"/>
<stop offset="1" stop-color="#DEE8EA"/>
</linearGradient>
<linearGradient id="paint2_linear_143_59" x1="117.52" y1="109.66" x2="44.7065" y2="34.0342" gradientUnits="userSpaceOnUse">
<stop stop-color="#A7C5CA"/>
<stop offset="1" stop-color="#F7F7F7"/>
</linearGradient>
<linearGradient id="paint3_linear_143_59" x1="46.1506" y1="172" x2="97.5529" y2="132.758" gradientUnits="userSpaceOnUse">
<stop stop-color="#7BD659"/>
<stop offset="1" stop-color="#0199B5"/>
</linearGradient>
<linearGradient id="paint4_linear_143_59" x1="86.1001" y1="128.522" x2="86.1001" y2="139.736" gradientUnits="userSpaceOnUse">
<stop stop-color="#FFDDCF"/>
<stop offset="1" stop-color="#FFA47E"/>
</linearGradient>
<linearGradient id="paint5_linear_143_59" x1="88.3545" y1="141.067" x2="87.5057" y2="126.363" gradientUnits="userSpaceOnUse">
<stop stop-color="#A7C5CA"/>
<stop offset="1" stop-color="#F7F7F7"/>
</linearGradient>
<linearGradient id="paint6_linear_143_59" x1="88.3545" y1="158.228" x2="87.5057" y2="143.524" gradientUnits="userSpaceOnUse">
<stop stop-color="#A7C5CA"/>
<stop offset="1" stop-color="#F7F7F7"/>
</linearGradient>
<clipPath id="clip0_143_59">
<rect width="172" height="172" fill="white" transform="translate(0.5)"/>
</clipPath>
</defs>
</svg>
