<svg width="172" height="172" viewBox="0 0 172 172" fill="none" xmlns="http://www.w3.org/2000/svg">
<path d="M139.064 118.726H49.0337C47.018 118.726 45.384 117.092 45.384 115.076V73.0224C45.384 71.0067 47.018 69.3727 49.0337 69.3727H139.064C141.08 69.3727 142.714 71.0067 142.714 73.0224V115.076C142.714 117.092 141.08 118.726 139.064 118.726Z" fill="url(#paint0_linear_143_89)"/>
<path d="M45.4831 113.559L50.6502 118.726H139.064C141.08 118.726 142.714 117.092 142.714 115.076V73.0223C142.714 71.0067 141.08 69.3724 139.064 69.3724H49.0337C47.018 69.3724 45.384 71.0064 45.384 73.0223V113.347L45.4831 113.559Z" fill="url(#paint1_linear_143_89)"/>
<path d="M133.59 113.252H43.5599C41.5443 113.252 39.9103 111.618 39.9103 109.602V67.5478C39.9103 65.5322 41.5443 63.8982 43.5599 63.8982H133.59C135.606 63.8982 137.24 65.5322 137.24 67.5478V109.602C137.24 111.618 135.606 113.252 133.59 113.252Z" fill="url(#paint2_linear_143_89)"/>
<path d="M40.0087 108.085L45.1758 113.252H133.59C135.605 113.252 137.239 111.618 137.239 109.602V67.5478C137.239 65.5322 135.605 63.8979 133.59 63.8979H43.5599C41.5443 63.8979 39.9103 65.5319 39.9103 67.5478V107.872L40.0087 108.085Z" fill="url(#paint3_linear_143_89)"/>
<path d="M128.116 107.777H38.0855C36.0699 107.777 34.4359 106.143 34.4359 104.128V62.0737C34.4359 60.0581 36.0699 58.4241 38.0855 58.4241H128.116C130.132 58.4241 131.766 60.0581 131.766 62.0737V104.128C131.766 106.143 130.132 107.777 128.116 107.777Z" fill="url(#paint4_linear_143_89)"/>
<path d="M34.535 102.61L39.7021 107.777H128.116C130.132 107.777 131.766 106.143 131.766 104.128V62.0737C131.766 60.0581 130.132 58.4241 128.116 58.4241H38.0855C36.0699 58.4241 34.4359 60.0581 34.4359 62.0737V102.398L34.535 102.61Z" fill="url(#paint5_linear_143_89)"/>
<path d="M122.966 102.627H32.9356C30.92 102.627 29.286 100.993 29.286 98.9778V56.9238C29.286 54.9082 30.92 53.2742 32.9356 53.2742H122.966C124.982 53.2742 126.616 54.9082 126.616 56.9238V98.9774C126.616 100.993 124.982 102.627 122.966 102.627Z" fill="url(#paint6_linear_143_89)"/>
<path d="M121.118 63.7081C118.477 63.571 116.318 61.4072 116.181 58.7668C116.151 58.1826 116.219 57.6192 116.367 57.0884H39.534C39.6821 57.6185 39.7507 58.1822 39.7201 58.7664C39.5827 61.4072 37.4243 63.571 34.7838 63.7077C33.8805 63.7548 33.0249 63.571 32.2687 63.2116V92.6887C33.0255 92.3292 33.8818 92.1455 34.7855 92.1925C37.4263 92.3306 39.5837 94.495 39.7201 97.1358C39.75 97.7193 39.6821 98.282 39.534 98.8121H116.367C116.219 98.2824 116.151 97.7193 116.181 97.1358C116.318 94.495 118.475 92.3306 121.116 92.1925C122.02 92.1451 122.876 92.3289 123.632 92.6887V63.2116C122.877 63.5713 122.021 63.7548 121.118 63.7081Z" fill="url(#paint7_linear_143_89)"/>
<path d="M77.9498 90.5874C84.9296 90.5874 90.5878 84.9292 90.5878 77.9495C90.5878 70.9697 84.9296 65.3115 77.9498 65.3115C70.9701 65.3115 65.3119 70.9697 65.3119 77.9495C65.3119 84.9292 70.9701 90.5874 77.9498 90.5874Z" fill="url(#paint8_linear_143_89)"/>
<path d="M60.5812 61.731H41.1721V67.3146H60.5812V61.731Z" fill="url(#paint9_linear_143_89)"/>
<path d="M114.727 88.5866H95.3184V94.1702H114.727V88.5866Z" fill="url(#paint10_linear_143_89)"/>
<path d="M167.044 38.9835C163.565 37.7106 159.757 39.1636 157.947 42.2508C152.241 32.8318 144.708 24.591 135.634 17.9324C121.093 7.26367 103.85 1.62463 85.7664 1.62463C67.6833 1.62463 50.4393 7.26367 35.8993 17.9324C21.6586 28.3813 11.2055 42.7245 5.66965 59.4098C4.35714 63.3661 6.50042 67.6376 10.4567 68.9501C14.4144 70.2632 18.6848 68.1193 19.997 64.163C24.5412 50.4665 33.1281 38.6885 44.8295 30.1027C56.7619 21.3472 70.9173 16.7189 85.7664 16.7189C100.615 16.7189 114.771 21.3472 126.703 30.103C133.672 35.216 139.535 41.4617 144.098 48.5701C140.626 48.0484 137.15 50.017 135.896 53.4429C134.463 57.3576 136.476 61.6922 140.391 63.1246L156.106 68.8748C156.144 68.8886 156.182 68.8977 156.22 68.9108C156.352 68.9568 156.485 68.9984 156.619 69.0371C156.691 69.0576 156.763 69.0787 156.835 69.0975C156.97 69.1321 157.107 69.1614 157.245 69.1886C157.315 69.2024 157.385 69.2185 157.455 69.2302C157.601 69.2548 157.748 69.2719 157.896 69.2884C157.957 69.2947 158.017 69.3048 158.077 69.3095C158.283 69.3267 158.49 69.3364 158.698 69.3364C158.698 69.3364 158.698 69.3364 158.699 69.3364H158.699C158.895 69.3364 159.09 69.3283 159.283 69.3132C159.33 69.3095 159.376 69.3018 159.422 69.2974C159.571 69.283 159.72 69.2675 159.868 69.244C159.925 69.2349 159.982 69.2215 160.039 69.2111C160.176 69.1862 160.313 69.1604 160.449 69.1281C160.512 69.113 160.575 69.0935 160.638 69.0764C160.767 69.0425 160.894 69.0075 161.02 68.9669C161.038 68.9608 161.057 68.9568 161.076 68.9507C161.114 68.9383 161.149 68.9212 161.186 68.9084C161.352 68.85 161.516 68.7868 161.678 68.7173C161.748 68.6877 161.817 68.6578 161.885 68.6262C162.043 68.5527 162.198 68.473 162.35 68.3887C162.399 68.3622 162.449 68.3383 162.497 68.3108C162.68 68.2043 162.858 68.0877 163.033 67.9658C163.101 67.9181 163.166 67.8673 163.231 67.8176C163.348 67.7303 163.462 67.6403 163.573 67.5462C163.635 67.4945 163.695 67.4427 163.754 67.389C163.881 67.2744 164.004 67.1548 164.124 67.0315C164.157 66.9973 164.192 66.9647 164.224 66.9297C164.38 66.7628 164.529 66.5881 164.67 66.406C164.679 66.3933 164.688 66.3798 164.698 66.3671C164.823 66.2024 164.942 66.0311 165.055 65.8548C165.084 65.8074 165.113 65.7593 165.142 65.7113C165.229 65.5682 165.311 65.4221 165.389 65.2719C165.421 65.2101 165.454 65.1486 165.484 65.0858C165.552 64.945 165.615 64.8013 165.675 64.6548C165.703 64.5869 165.733 64.5201 165.759 64.4515C165.767 64.428 165.778 64.4055 165.787 64.3817L171.538 48.6662C172.971 44.7509 170.958 40.4159 167.044 38.9835Z" fill="url(#paint11_linear_143_89)"/>
<path d="M4.95602 133.016C8.43498 134.289 12.2428 132.836 14.0528 129.749C19.7591 139.168 27.2925 147.408 36.3664 154.067C50.9065 164.736 68.1504 170.375 86.2336 170.375C104.317 170.375 121.561 164.736 136.101 154.067C150.341 143.618 160.794 129.275 166.331 112.59C167.643 108.633 165.5 104.362 161.544 103.049C157.586 101.736 153.315 103.88 152.003 107.836C147.459 121.533 138.872 133.311 127.171 141.897C115.238 150.652 101.083 155.28 86.2339 155.28C71.3848 155.28 57.2298 150.653 45.297 141.897C38.3283 136.784 32.4649 130.538 27.9018 123.43C31.3741 123.951 34.8507 121.983 36.1041 118.557C37.5368 114.642 35.5243 110.308 31.6096 108.875L15.8941 103.125C15.8565 103.111 15.8182 103.102 15.7806 103.089C15.6485 103.043 15.5155 103.001 15.3811 102.963C15.3093 102.942 15.2377 102.921 15.1658 102.902C15.0301 102.868 14.8934 102.838 14.7556 102.811C14.6854 102.797 14.6152 102.781 14.5453 102.769C14.3992 102.745 14.2521 102.728 14.1039 102.711C14.0438 102.705 13.9836 102.695 13.9235 102.69C13.7176 102.673 13.5103 102.663 13.302 102.663C13.302 102.663 13.302 102.663 13.3017 102.663H13.3014C13.1055 102.663 12.9103 102.671 12.7168 102.686C12.6705 102.69 12.6244 102.698 12.5781 102.702C12.4289 102.717 12.2801 102.732 12.1326 102.756C12.0755 102.765 12.0188 102.778 11.9613 102.789C11.8239 102.813 11.6872 102.839 11.5518 102.872C11.4883 102.887 11.4255 102.906 11.362 102.923C11.234 102.957 11.1063 102.992 10.9807 103.033C10.9619 103.039 10.9431 103.043 10.9239 103.049C10.8866 103.061 10.8517 103.079 10.8144 103.091C10.6481 103.15 10.4839 103.213 10.3219 103.282C10.2524 103.312 10.1832 103.342 10.1153 103.373C9.95744 103.447 9.80258 103.527 9.65006 103.611C9.60169 103.638 9.5513 103.661 9.50359 103.689C9.32017 103.795 9.14213 103.912 8.96777 104.034C8.89958 104.082 8.83474 104.132 8.7689 104.182C8.65267 104.269 8.53845 104.359 8.42692 104.454C8.36578 104.505 8.30531 104.557 8.24585 104.611C8.11886 104.725 7.99591 104.845 7.87665 104.968C7.84373 105.002 7.80812 105.035 7.77587 105.07C7.62033 105.237 7.47151 105.412 7.33075 105.594C7.32101 105.606 7.31228 105.62 7.30254 105.633C7.17723 105.797 7.05831 105.969 6.94577 106.145C6.91587 106.192 6.88732 106.24 6.85843 106.288C6.77142 106.432 6.68911 106.578 6.61084 106.728C6.57893 106.79 6.54668 106.851 6.51644 106.914C6.44825 107.055 6.38543 107.198 6.32529 107.345C6.29741 107.413 6.26751 107.48 6.24165 107.548C6.23291 107.572 6.22183 107.594 6.21309 107.618L0.461853 123.334C-0.970918 127.248 1.04134 131.584 4.95602 133.016Z" fill="url(#paint12_radial_143_89)"/>
<path d="M4.95602 133.016C8.43498 134.289 12.2428 132.836 14.0528 129.749C19.7591 139.168 27.2925 147.408 36.3664 154.067C50.9065 164.736 68.1504 170.375 86.2336 170.375C104.317 170.375 121.561 164.736 136.101 154.067C150.341 143.618 160.794 129.275 166.331 112.59C167.643 108.633 165.5 104.362 161.544 103.049C157.586 101.736 153.315 103.88 152.003 107.836C147.459 121.533 138.872 133.311 127.171 141.897C115.238 150.652 101.083 155.28 86.2339 155.28C71.3848 155.28 57.2298 150.653 45.297 141.897C38.3283 136.784 32.4649 130.538 27.9018 123.43C31.3741 123.951 34.8507 121.983 36.1041 118.557C37.5368 114.642 35.5243 110.308 31.6096 108.875L15.8941 103.125C15.8565 103.111 15.8182 103.102 15.7806 103.089C15.6485 103.043 15.5155 103.001 15.3811 102.963C15.3093 102.942 15.2377 102.921 15.1658 102.902C15.0301 102.868 14.8934 102.838 14.7556 102.811C14.6854 102.797 14.6152 102.781 14.5453 102.769C14.3992 102.745 14.2521 102.728 14.1039 102.711C14.0438 102.705 13.9836 102.695 13.9235 102.69C13.7176 102.673 13.5103 102.663 13.302 102.663C13.302 102.663 13.302 102.663 13.3017 102.663H13.3014C13.1055 102.663 12.9103 102.671 12.7168 102.686C12.6705 102.69 12.6244 102.698 12.5781 102.702C12.4289 102.717 12.2801 102.732 12.1326 102.756C12.0755 102.765 12.0188 102.778 11.9613 102.789C11.8239 102.813 11.6872 102.839 11.5518 102.872C11.4883 102.887 11.4255 102.906 11.362 102.923C11.234 102.957 11.1063 102.992 10.9807 103.033C10.9619 103.039 10.9431 103.043 10.9239 103.049C10.8866 103.061 10.8517 103.079 10.8144 103.091C10.6481 103.15 10.4839 103.213 10.3219 103.282C10.2524 103.312 10.1832 103.342 10.1153 103.373C9.95744 103.447 9.80258 103.527 9.65006 103.611C9.60169 103.638 9.5513 103.661 9.50359 103.689C9.32017 103.795 9.14213 103.912 8.96777 104.034C8.89958 104.082 8.83474 104.132 8.7689 104.182C8.65267 104.269 8.53845 104.359 8.42692 104.454C8.36578 104.505 8.30531 104.557 8.24585 104.611C8.11886 104.725 7.99591 104.845 7.87665 104.968C7.84373 105.002 7.80812 105.035 7.77587 105.07C7.62033 105.237 7.47151 105.412 7.33075 105.594C7.32101 105.606 7.31228 105.62 7.30254 105.633C7.17723 105.797 7.05831 105.969 6.94577 106.145C6.91587 106.192 6.88732 106.24 6.85843 106.288C6.77142 106.432 6.68911 106.578 6.61084 106.728C6.57893 106.79 6.54668 106.851 6.51644 106.914C6.44825 107.055 6.38543 107.198 6.32529 107.345C6.29741 107.413 6.26751 107.48 6.24165 107.548C6.23291 107.572 6.22183 107.594 6.21309 107.618L0.461853 123.334C-0.970918 127.248 1.04134 131.584 4.95602 133.016Z" fill="url(#paint13_linear_143_89)"/>
<path d="M4.95602 133.016C8.43498 134.289 12.2428 132.836 14.0528 129.749C19.7591 139.168 27.2925 147.408 36.3664 154.067C50.9065 164.736 68.1504 170.375 86.2336 170.375C104.317 170.375 121.561 164.736 136.101 154.067C150.341 143.618 160.794 129.275 166.331 112.59C167.643 108.633 165.5 104.362 161.544 103.049C157.586 101.736 153.315 103.88 152.003 107.836C147.459 121.533 138.872 133.311 127.171 141.897C115.238 150.652 101.083 155.28 86.2339 155.28C71.3848 155.28 57.2298 150.653 45.297 141.897C38.3283 136.784 32.4649 130.538 27.9018 123.43C31.3741 123.951 34.8507 121.983 36.1041 118.557C37.5368 114.642 35.5243 110.308 31.6096 108.875L15.8941 103.125C15.8565 103.111 15.8182 103.102 15.7806 103.089C15.6485 103.043 15.5155 103.001 15.3811 102.963C15.3093 102.942 15.2377 102.921 15.1658 102.902C15.0301 102.868 14.8934 102.838 14.7556 102.811C14.6854 102.797 14.6152 102.781 14.5453 102.769C14.3992 102.745 14.2521 102.728 14.1039 102.711C14.0438 102.705 13.9836 102.695 13.9235 102.69C13.7176 102.673 13.5103 102.663 13.302 102.663C13.302 102.663 13.302 102.663 13.3017 102.663H13.3014C13.1055 102.663 12.9103 102.671 12.7168 102.686C12.6705 102.69 12.6244 102.698 12.5781 102.702C12.4289 102.717 12.2801 102.732 12.1326 102.756C12.0755 102.765 12.0188 102.778 11.9613 102.789C11.8239 102.813 11.6872 102.839 11.5518 102.872C11.4883 102.887 11.4255 102.906 11.362 102.923C11.234 102.957 11.1063 102.992 10.9807 103.033C10.9619 103.039 10.9431 103.043 10.9239 103.049C10.8866 103.061 10.8517 103.079 10.8144 103.091C10.6481 103.15 10.4839 103.213 10.3219 103.282C10.2524 103.312 10.1832 103.342 10.1153 103.373C9.95744 103.447 9.80258 103.527 9.65006 103.611C9.60169 103.638 9.5513 103.661 9.50359 103.689C9.32017 103.795 9.14213 103.912 8.96777 104.034C8.89958 104.082 8.83474 104.132 8.7689 104.182C8.65267 104.269 8.53845 104.359 8.42692 104.454C8.36578 104.505 8.30531 104.557 8.24585 104.611C8.11886 104.725 7.99591 104.845 7.87665 104.968C7.84373 105.002 7.80812 105.035 7.77587 105.07C7.62033 105.237 7.47151 105.412 7.33075 105.594C7.32101 105.606 7.31228 105.62 7.30254 105.633C7.17723 105.797 7.05831 105.969 6.94577 106.145C6.91587 106.192 6.88732 106.24 6.85843 106.288C6.77142 106.432 6.68911 106.578 6.61084 106.728C6.57893 106.79 6.54668 106.851 6.51644 106.914C6.44825 107.055 6.38543 107.198 6.32529 107.345C6.29741 107.413 6.26751 107.48 6.24165 107.548C6.23291 107.572 6.22183 107.594 6.21309 107.618L0.461853 123.334C-0.970918 127.248 1.04134 131.584 4.95602 133.016Z" fill="url(#paint14_linear_143_89)"/>
<defs>
<linearGradient id="paint0_linear_143_89" x1="45.3831" y1="94.051" x2="142.711" y2="94.051" gradientUnits="userSpaceOnUse">
<stop stop-color="#61DB99"/>
<stop offset="1" stop-color="#009E74"/>
</linearGradient>
<linearGradient id="paint1_linear_143_89" x1="98.4461" y1="108.928" x2="93.3402" y2="90.369" gradientUnits="userSpaceOnUse">
<stop stop-color="#009E74" stop-opacity="0"/>
<stop offset="1" stop-color="#009E74"/>
</linearGradient>
<linearGradient id="paint2_linear_143_89" x1="39.9092" y1="88.5767" x2="137.237" y2="88.5767" gradientUnits="userSpaceOnUse">
<stop stop-color="#61DB99"/>
<stop offset="1" stop-color="#009E74"/>
</linearGradient>
<linearGradient id="paint3_linear_143_89" x1="92.3669" y1="105.693" x2="89.0012" y2="89.5728" gradientUnits="userSpaceOnUse">
<stop stop-color="#009E74" stop-opacity="0"/>
<stop offset="1" stop-color="#009E74"/>
</linearGradient>
<linearGradient id="paint4_linear_143_89" x1="34.4351" y1="83.1025" x2="131.763" y2="83.1025" gradientUnits="userSpaceOnUse">
<stop stop-color="#61DB99"/>
<stop offset="1" stop-color="#009E74"/>
</linearGradient>
<linearGradient id="paint5_linear_143_89" x1="90.4226" y1="111.009" x2="74.771" y2="49.0326" gradientUnits="userSpaceOnUse">
<stop stop-color="#009E74" stop-opacity="0"/>
<stop offset="1" stop-color="#009E74"/>
</linearGradient>
<linearGradient id="paint6_linear_143_89" x1="29.2853" y1="77.9528" x2="126.613" y2="77.9528" gradientUnits="userSpaceOnUse">
<stop stop-color="#A7F3CE"/>
<stop offset="1" stop-color="#61DB99"/>
</linearGradient>
<linearGradient id="paint7_linear_143_89" x1="52.5265" y1="52.5296" x2="114.459" y2="114.462" gradientUnits="userSpaceOnUse">
<stop stop-color="#61DB99"/>
<stop offset="1" stop-color="#009E74"/>
</linearGradient>
<linearGradient id="paint8_linear_143_89" x1="70.4274" y1="70.431" x2="88.7501" y2="88.7536" gradientUnits="userSpaceOnUse">
<stop stop-color="#A7F3CE"/>
<stop offset="1" stop-color="#61DB99"/>
</linearGradient>
<linearGradient id="paint9_linear_143_89" x1="45.619" y1="59.2685" x2="58.4277" y2="72.0772" gradientUnits="userSpaceOnUse">
<stop stop-color="#A7F3CE"/>
<stop offset="1" stop-color="#61DB99"/>
</linearGradient>
<linearGradient id="paint10_linear_143_89" x1="99.7623" y1="86.122" x2="112.571" y2="98.9306" gradientUnits="userSpaceOnUse">
<stop stop-color="#A7F3CE"/>
<stop offset="1" stop-color="#61DB99"/>
</linearGradient>
<linearGradient id="paint11_linear_143_89" x1="189.5" y1="59.5" x2="-72.7671" y2="-127.829" gradientUnits="userSpaceOnUse">
<stop stop-color="#A7C5CA"/>
<stop offset="1" stop-color="#F7F7F7"/>
</linearGradient>
<radialGradient id="paint12_radial_143_89" cx="0" cy="0" r="1" gradientUnits="userSpaceOnUse" gradientTransform="translate(87.1092 86.5402) rotate(180) scale(85.4482 85.4482)">
<stop stop-color="#631746"/>
<stop offset="0.317" stop-color="#631746"/>
<stop offset="0.538" stop-color="#92376F"/>
<stop offset="0.729" stop-color="#631746"/>
<stop offset="0.902" stop-color="#92376F"/>
<stop offset="1" stop-color="#631746"/>
</radialGradient>
<linearGradient id="paint13_linear_143_89" x1="-21.3308" y1="170.375" x2="67.6132" y2="65.2438" gradientUnits="userSpaceOnUse">
<stop stop-color="#7BD659"/>
<stop offset="1" stop-color="#0199B5"/>
</linearGradient>
<linearGradient id="paint14_linear_143_89" x1="-63" y1="153.5" x2="256.801" y2="295.309" gradientUnits="userSpaceOnUse">
<stop stop-color="#A7C5CA"/>
<stop offset="1" stop-color="#F7F7F7"/>
</linearGradient>
</defs>
</svg>
